<svg width="1600" height="1038" viewBox="0 0 1600 1038" fill="none" xmlns="http://www.w3.org/2000/svg">
<path d="M0 45.3434C77.8304 -2.6136 122.204 -26.4516 229 45.3434C329.955 89.1711 377.704 80.0894 458 45.3434C604.134 0.926952 668.466 -0.362918 747.5 45.3434C893.029 110.431 987.866 105.731 1173.75 45.3434C1398.22 -10.6059 1479.06 1.43776 1600 45.3434V1038H0V45.3434Z" fill="#5C99E0" fill-opacity="0.4"/>
<path d="M1600 40.8157C1522.22 3.99322 1477.87 -14.3101 1371.14 40.8157C1270.25 74.4676 1222.53 67.4945 1142.29 40.8157C996.243 6.71173 931.952 5.72134 852.967 40.8157C707.529 90.7912 612.752 87.1823 426.984 40.8157C202.653 -2.14342 121.863 7.10394 1 40.8157V1035.5H1600V40.8157Z" fill="#5C99E0" fill-opacity="0.3"/>
<path d="M1600 102.736C1522.22 68.1131 1477.87 50.9032 1371.14 102.736C1270.25 134.378 1222.53 127.821 1142.29 102.736C996.243 70.6692 931.952 69.738 852.967 102.736C707.529 149.726 612.752 146.333 426.984 102.736C202.653 62.3431 121.863 71.038 1 102.736V1038H1600V102.736Z" fill="#5C99E0" fill-opacity="0.3"/>
</svg>
