<svg width="1599" height="345" viewBox="0 0 1599 345" fill="none" xmlns="http://www.w3.org/2000/svg">
<rect y="14" width="1599" height="331" fill="#62A1EA" fill-opacity="0.85"/>
<path d="M453.5 190.611C447.963 197.593 440.861 201.083 432.194 201.083C423.528 201.083 416.306 197.593 410.528 190.611C404.75 183.63 401.861 174.542 401.861 163.347C401.861 152.153 404.75 143.065 410.528 136.083C416.306 128.981 423.407 125.431 431.833 125.431C440.741 125.431 448.023 128.981 453.681 136.083C459.338 143.065 462.167 152.153 462.167 163.347C462.167 174.542 459.278 183.63 453.5 190.611ZM431.833 196.931C441.102 196.931 446.338 188.745 447.542 172.375C447.782 169.486 447.903 165.995 447.903 161.903C447.903 151.912 446.88 144.269 444.833 138.972C442.306 132.593 437.972 129.403 431.833 129.403C423.167 129.403 418.111 136.144 416.667 149.625C416.306 153.838 416.125 158.773 416.125 164.431C416.125 170.088 416.546 175.505 417.389 180.681C419.315 191.514 424.13 196.931 431.833 196.931ZM516.192 189.167C519.683 189.167 521.97 186.519 523.053 181.222H526.484V200H476.109V195.667L483.151 189.889C488.688 185.074 493.803 179.778 498.498 174C507.285 163.407 511.678 153.718 511.678 144.931C511.678 139.273 510.475 135.241 508.067 132.833C505.66 130.426 502.651 129.222 499.039 129.222C492.539 129.222 487.785 131.449 484.776 135.903C487.544 136.144 489.41 137.588 490.373 140.236C490.614 140.958 490.734 142.042 490.734 143.486C490.734 144.81 490.012 146.134 488.567 147.458C487.243 148.662 485.558 149.264 483.512 149.264C481.465 149.264 479.72 148.602 478.276 147.278C476.952 145.833 476.289 143.968 476.289 141.681C476.289 137.468 478.757 133.676 483.692 130.306C488.627 127.056 494.526 125.431 501.387 125.431C508.368 125.431 514.146 127.116 518.72 130.486C523.294 133.736 525.581 138.611 525.581 145.111C525.581 152.694 521.669 160.639 513.845 168.944C509.512 173.759 505.118 177.852 500.664 181.222L490.192 189.167H516.192Z" fill="white" fill-opacity="0.15"/>
<path d="M1185.5 190.611C1179.96 197.593 1172.86 201.083 1164.19 201.083C1155.53 201.083 1148.31 197.593 1142.53 190.611C1136.75 183.63 1133.86 174.542 1133.86 163.347C1133.86 152.153 1136.75 143.065 1142.53 136.083C1148.31 128.981 1155.41 125.431 1163.83 125.431C1172.74 125.431 1180.02 128.981 1185.68 136.083C1191.34 143.065 1194.17 152.153 1194.17 163.347C1194.17 174.542 1191.28 183.63 1185.5 190.611ZM1163.83 196.931C1173.1 196.931 1178.34 188.745 1179.54 172.375C1179.78 169.486 1179.9 165.995 1179.9 161.903C1179.9 151.912 1178.88 144.269 1176.83 138.972C1174.31 132.593 1169.97 129.403 1163.83 129.403C1155.17 129.403 1150.11 136.144 1148.67 149.625C1148.31 153.838 1148.13 158.773 1148.13 164.431C1148.13 170.088 1148.55 175.505 1149.39 180.681C1151.31 191.514 1156.13 196.931 1163.83 196.931ZM1202.69 177.611L1240.25 126.333H1249.1V176.528H1264.26V180.861H1249.1V196.208H1260.11V200H1223.46V196.208H1236.46V180.861H1202.69V177.611ZM1236.46 176.528V138.972L1209.37 176.528H1236.46Z" fill="white" fill-opacity="0.15"/>
<path d="M118.5 194.611C112.963 201.593 105.861 205.083 97.1944 205.083C88.5278 205.083 81.3056 201.593 75.5278 194.611C69.75 187.63 66.8611 178.542 66.8611 167.347C66.8611 156.153 69.75 147.065 75.5278 140.083C81.3056 132.981 88.4074 129.431 96.8333 129.431C105.741 129.431 113.023 132.981 118.681 140.083C124.338 147.065 127.167 156.153 127.167 167.347C127.167 178.542 124.278 187.63 118.5 194.611ZM96.8333 200.931C106.102 200.931 111.338 192.745 112.542 176.375C112.782 173.486 112.903 169.995 112.903 165.903C112.903 155.912 111.88 148.269 109.833 142.972C107.306 136.593 102.972 133.403 96.8333 133.403C88.1667 133.403 83.1111 140.144 81.6667 153.625C81.3056 157.838 81.125 162.773 81.125 168.431C81.125 174.088 81.5463 179.505 82.3889 184.681C84.3148 195.514 89.1296 200.931 96.8333 200.931ZM143.817 200.208H152.303V134.306L143.998 135.028V131.417L165.123 129.25V200.208H173.609V204H143.817V200.208Z" fill="white" fill-opacity="0.15"/>
<path d="M178.568 145V127.264H165.824V145H167.6V128.872H176.792V145H178.568ZM193.943 132.64C193.943 130.6 193.175 128.992 191.831 128.2C190.727 127.528 189.383 127.264 187.103 127.264H182.207V145H183.983V137.824H187.391C189.791 137.824 191.087 137.512 192.167 136.72C193.319 135.88 193.943 134.416 193.943 132.64ZM192.143 132.64C192.143 134.008 191.591 135.112 190.679 135.616C189.935 136.048 188.903 136.216 187.271 136.216H183.983V128.872H186.503C188.543 128.872 189.815 129.04 190.535 129.4C191.567 129.928 192.143 131.056 192.143 132.64ZM208.674 145V127.264H206.754L198.186 143.008V127.264H196.41V145H198.978L206.898 130.144V145H208.674ZM228.98 140.344H227.012C226.268 141.28 225.836 141.76 225.236 142.216C224.06 143.152 222.452 143.68 220.844 143.68C216.74 143.68 213.356 140.272 213.356 136.12C213.356 131.848 216.596 128.584 220.82 128.584C222.356 128.584 223.796 128.992 224.972 129.784C225.764 130.288 226.244 130.816 226.916 131.872H228.908C227.54 128.824 224.42 126.952 220.748 126.952C215.468 126.952 211.556 130.888 211.556 136.192C211.556 141.376 215.564 145.312 220.868 145.312C224.468 145.312 227.204 143.632 228.98 140.344ZM249.823 136.144C249.823 131.08 245.599 126.952 240.463 126.952C235.375 126.952 231.079 131.104 231.079 136.024C231.079 141.184 235.255 145.312 240.463 145.312C245.599 145.312 249.823 141.16 249.823 136.144ZM248.023 136.168C248.023 140.272 244.591 143.68 240.463 143.68C236.287 143.68 232.879 140.272 232.879 136.072C232.879 132.016 236.359 128.584 240.463 128.584C244.591 128.584 248.023 132.016 248.023 136.168ZM262.403 145V143.392H254.483V136.84H262.139V135.232H254.483V128.872H262.403V127.264H252.707V145H262.403ZM277.982 143.392H267.974L272.966 129.472L277.982 143.392ZM281.534 148.024V143.392H279.854L273.83 127.264H272.102L266.054 143.392H264.374V148.024H266.15V145H279.758V148.024H281.534ZM298.182 145V127.264H296.262L287.694 143.008V127.264H285.918V145H288.486L296.406 130.144V145H298.182ZM314.576 145V127.264H312.8V135.064H303.608V127.264H301.832V145H303.608V136.672H312.8V145H314.576ZM329.063 145V127.264H324.671C322.343 127.264 320.807 127.528 319.703 128.128C317.975 129.064 317.039 130.744 317.039 132.976C317.039 136.12 319.103 138.304 323.063 138.304L317.303 145H319.511L326.447 136.816C324.479 136.816 322.367 136.864 321.527 136.648C319.751 136.168 318.839 134.92 318.839 132.904C318.839 131.296 319.511 130.096 320.711 129.52C321.671 129.064 322.919 128.872 324.791 128.872H327.287V145H329.063ZM342.491 122.944H340.955C340.859 123.544 340.691 123.808 340.331 124.048C339.899 124.288 339.371 124.432 338.843 124.432C338.315 124.432 337.787 124.288 337.355 124.048C336.995 123.808 336.827 123.544 336.731 122.944H335.195C335.555 124.912 336.707 125.824 338.843 125.824C339.851 125.824 340.691 125.584 341.315 125.128C341.987 124.648 342.275 124.12 342.491 122.944ZM344.963 145V127.264H343.043L334.475 143.008V127.264H332.699V145H335.267L343.187 130.144V145H344.963ZM365.269 140.344H363.301C362.557 141.28 362.125 141.76 361.525 142.216C360.349 143.152 358.741 143.68 357.133 143.68C353.029 143.68 349.645 140.272 349.645 136.12C349.645 131.848 352.885 128.584 357.109 128.584C358.645 128.584 360.085 128.992 361.261 129.784C362.053 130.288 362.533 130.816 363.205 131.872H365.197C363.829 128.824 360.709 126.952 357.037 126.952C351.757 126.952 347.845 130.888 347.845 136.192C347.845 141.376 351.853 145.312 357.157 145.312C360.757 145.312 363.493 143.632 365.269 140.344ZM378.984 145V127.264H374.593C372.265 127.264 370.729 127.528 369.625 128.128C367.896 129.064 366.961 130.744 366.961 132.976C366.961 136.12 369.025 138.304 372.985 138.304L367.225 145H369.433L376.369 136.816C374.401 136.816 372.289 136.864 371.449 136.648C369.673 136.168 368.761 134.92 368.761 132.904C368.761 131.296 369.433 130.096 370.633 129.52C371.593 129.064 372.841 128.872 374.713 128.872H377.209V145H378.984ZM401.541 145V127.264H399.621L391.053 143.008V127.264H389.277V145H391.845L399.765 130.144V145H401.541ZM178.568 180V162.264H176.792V170.064H167.6V162.264H165.824V180H167.6V171.672H176.792V180H178.568ZM197.879 180L190.247 162.264H188.255L180.647 180H182.519L185.111 174.024H193.367L195.935 180H197.879ZM192.671 172.416H185.783L189.263 164.28L192.671 172.416ZM216.628 175.344H214.66C213.916 176.28 213.484 176.76 212.884 177.216C211.708 178.152 210.1 178.68 208.492 178.68C204.388 178.68 201.004 175.272 201.004 171.12C201.004 166.848 204.244 163.584 208.468 163.584C210.004 163.584 211.444 163.992 212.62 164.784C213.412 165.288 213.892 165.816 214.564 166.872H216.556C215.188 163.824 212.068 161.952 208.396 161.952C203.116 161.952 199.204 165.888 199.204 171.192C199.204 176.376 203.212 180.312 208.516 180.312C212.116 180.312 214.852 178.632 216.628 175.344ZM233.632 180L226.936 162.264H225.208L218.512 180H220.456L226.096 164.472L231.76 180H233.632ZM252.019 180L244.387 162.264H242.395L234.787 180H236.659L239.251 174.024H247.507L250.075 180H252.019ZM246.811 172.416H239.923L243.403 164.28L246.811 172.416ZM262.609 170.904L255.841 162.264H253.609L260.377 170.904L253.369 180H255.601L262.609 170.904ZM264.985 180V162.264H263.209V180H264.985ZM274.705 180L267.697 170.904L274.465 162.264H272.233L265.465 170.904L272.473 180H274.705ZM289.888 178.392H279.88L284.872 164.472L289.888 178.392ZM293.44 183.024V178.392H291.76L285.736 162.264H284.008L277.96 178.392H276.28V183.024H278.056V180H291.664V183.024H293.44ZM313.496 180L305.864 162.264H303.872L296.264 180H298.136L300.728 174.024H308.984L311.552 180H313.496ZM308.288 172.416H301.4L304.88 164.28L308.288 172.416ZM325.382 157.944H323.846C323.75 158.544 323.582 158.808 323.222 159.048C322.79 159.288 322.262 159.432 321.734 159.432C321.206 159.432 320.678 159.288 320.246 159.048C319.886 158.808 319.718 158.544 319.622 157.944H318.086C318.446 159.912 319.598 160.824 321.734 160.824C322.742 160.824 323.582 160.584 324.206 160.128C324.878 159.648 325.166 159.12 325.382 157.944ZM327.854 180V162.264H325.934L317.366 178.008V162.264H315.59V180H318.158L326.078 165.144V180H327.854ZM348.16 175.344H346.192C345.448 176.28 345.016 176.76 344.416 177.216C343.24 178.152 341.632 178.68 340.024 178.68C335.92 178.68 332.536 175.272 332.536 171.12C332.536 166.848 335.776 163.584 340 163.584C341.536 163.584 342.976 163.992 344.152 164.784C344.944 165.288 345.424 165.816 346.096 166.872H348.088C346.72 163.824 343.6 161.952 339.928 161.952C334.648 161.952 330.736 165.888 330.736 171.192C330.736 176.376 334.744 180.312 340.048 180.312C343.648 180.312 346.384 178.632 348.16 175.344ZM361.875 180V162.264H357.483C355.155 162.264 353.619 162.528 352.515 163.128C350.787 164.064 349.851 165.744 349.851 167.976C349.851 171.12 351.915 173.304 355.875 173.304L350.115 180H352.323L359.259 171.816C357.291 171.816 355.179 171.864 354.339 171.648C352.563 171.168 351.651 169.92 351.651 167.904C351.651 166.296 352.323 165.096 353.523 164.52C354.483 164.064 355.731 163.872 357.603 163.872H360.099V180H361.875ZM179.96 215L173.264 197.264H171.536L164.84 215H166.784L172.424 199.472L178.088 215H179.96ZM205.74 206.144C205.74 201.08 201.516 196.952 196.38 196.952C191.628 196.952 187.62 200.576 187.092 205.064H184.452V197.264H182.676V215H184.452V206.672H187.092C187.428 211.52 191.388 215.312 196.38 215.312C201.516 215.312 205.74 211.16 205.74 206.144ZM203.94 206.168C203.94 210.272 200.508 213.68 196.38 213.68C192.204 213.68 188.796 210.272 188.796 206.072C188.796 202.016 192.276 198.584 196.38 198.584C200.508 198.584 203.94 202.016 203.94 206.168ZM220.645 209.336C220.645 205.28 218.149 203.624 213.013 203.624H210.397V198.872H219.757V197.264H208.621V215H213.013C218.125 215 220.645 213.32 220.645 209.336ZM218.845 209.336C218.845 212.504 216.637 213.392 212.893 213.392H210.397V205.232H212.893C216.661 205.232 218.845 206.12 218.845 209.336ZM240.308 206.144C240.308 201.08 236.084 196.952 230.948 196.952C225.86 196.952 221.564 201.104 221.564 206.024C221.564 211.184 225.74 215.312 230.948 215.312C236.084 215.312 240.308 211.16 240.308 206.144ZM238.508 206.168C238.508 210.272 235.076 213.68 230.948 213.68C226.772 213.68 223.364 210.272 223.364 206.072C223.364 202.016 226.844 198.584 230.948 198.584C235.076 198.584 238.508 202.016 238.508 206.168ZM255.143 209.912C255.143 207.752 254.183 206.216 252.095 205.544C253.511 204.92 254.135 203.624 254.135 201.872C254.135 200.336 253.559 199.04 252.551 198.296C251.543 197.576 250.223 197.264 248.063 197.264H243.191V215H248.231C252.863 215 255.143 213.584 255.143 209.912ZM253.343 210.008C253.343 212.744 251.159 213.392 248.111 213.392H244.967V206.504H247.799C251.471 206.504 253.343 207.2 253.343 210.008ZM252.335 201.896C252.335 204.416 250.559 204.944 247.847 204.944H244.967V198.872H247.559C250.559 198.872 252.335 199.304 252.335 201.896ZM268.926 209.336C268.926 205.28 266.43 203.624 261.294 203.624H258.678V197.264H256.902V215H261.294C266.406 215 268.926 213.32 268.926 209.336ZM267.126 209.336C267.126 212.504 264.918 213.392 261.174 213.392H258.678V205.232H261.174C264.942 205.232 267.126 206.12 267.126 209.336ZM293.677 206.144C293.677 201.08 289.453 196.952 284.317 196.952C279.565 196.952 275.557 200.576 275.029 205.064H272.389V197.264H270.613V215H272.389V206.672H275.029C275.365 211.52 279.325 215.312 284.317 215.312C289.453 215.312 293.677 211.16 293.677 206.144ZM291.877 206.168C291.877 210.272 288.445 213.68 284.317 213.68C280.141 213.68 276.733 210.272 276.733 206.072C276.733 202.016 280.213 198.584 284.317 198.584C288.445 198.584 291.877 202.016 291.877 206.168Z" fill="white"/>
<path d="M550.232 143.392H540.224L545.216 129.472L550.232 143.392ZM553.784 148.024V143.392H552.104L546.08 127.264H544.352L538.304 143.392H536.624V148.024H538.4V145H552.008V148.024H553.784ZM576.144 136.144C576.144 131.08 571.92 126.952 566.784 126.952C561.696 126.952 557.4 131.104 557.4 136.024C557.4 141.184 561.576 145.312 566.784 145.312C571.92 145.312 576.144 141.16 576.144 136.144ZM574.344 136.168C574.344 140.272 570.912 143.68 566.784 143.68C562.608 143.68 559.2 140.272 559.2 136.072C559.2 132.016 562.68 128.584 566.784 128.584C570.912 128.584 574.344 132.016 574.344 136.168ZM591.051 139.336C591.051 135.28 588.555 133.624 583.419 133.624H580.803V128.872H590.163V127.264H579.027V145H583.419C588.531 145 591.051 143.32 591.051 139.336ZM589.251 139.336C589.251 142.504 587.043 143.392 583.299 143.392H580.803V135.232H583.299C587.067 135.232 589.251 136.12 589.251 139.336ZM608.41 145L600.778 127.264H598.786L591.178 145H593.05L595.642 139.024H603.898L606.466 145H608.41ZM603.202 137.416H596.314L599.794 129.28L603.202 137.416ZM622.456 139.912C622.456 137.752 621.496 136.216 619.408 135.544C620.824 134.92 621.448 133.624 621.448 131.872C621.448 130.336 620.872 129.04 619.864 128.296C618.856 127.576 617.536 127.264 615.376 127.264H610.504V145H615.544C620.176 145 622.456 143.584 622.456 139.912ZM620.656 140.008C620.656 142.744 618.472 143.392 615.424 143.392H612.28V136.504H615.112C618.784 136.504 620.656 137.2 620.656 140.008ZM619.648 131.896C619.648 134.416 617.872 134.944 615.16 134.944H612.28V128.872H614.872C617.872 128.872 619.648 129.304 619.648 131.896ZM636.239 139.336C636.239 135.28 633.743 133.624 628.607 133.624H625.991V127.264H624.215V145H628.607C633.719 145 636.239 143.32 636.239 139.336ZM634.439 139.336C634.439 142.504 632.231 143.392 628.487 143.392H625.991V135.232H628.487C632.255 135.232 634.439 136.12 634.439 139.336ZM550.088 180V162.264H548.168L539.6 178.008V162.264H537.824V180H540.392L548.312 165.144V180H550.088ZM566.482 180V162.264H564.706V170.064H555.514V162.264H553.738V180H555.514V171.672H564.706V180H566.482ZM587.137 170.664C587.137 165.744 583.993 162.912 579.145 162.912V160.944H577.369V162.912C572.281 162.912 569.449 165.84 569.449 170.544C569.449 175.248 572.161 178.392 577.369 178.392V181.008H579.145V178.392C584.017 178.392 587.137 175.536 587.137 170.664ZM585.337 170.688C585.337 174.648 583.105 176.76 579.145 176.76V164.544C582.913 164.544 585.337 166.68 585.337 170.688ZM577.369 176.76C573.505 176.76 571.249 174.336 571.249 170.592C571.249 166.848 573.553 164.544 577.369 164.544V176.76ZM607.902 171.144C607.902 166.08 603.678 161.952 598.542 161.952C593.454 161.952 589.158 166.104 589.158 171.024C589.158 176.184 593.334 180.312 598.542 180.312C603.678 180.312 607.902 176.16 607.902 171.144ZM606.102 171.168C606.102 175.272 602.67 178.68 598.542 178.68C594.366 178.68 590.958 175.272 590.958 171.072C590.958 167.016 594.438 163.584 598.542 163.584C602.67 163.584 606.102 167.016 606.102 171.168ZM622.521 167.64C622.521 165.6 621.753 163.992 620.409 163.2C619.305 162.528 617.961 162.264 615.681 162.264H610.785V180H612.561V172.824H615.969C618.369 172.824 619.665 172.512 620.745 171.72C621.897 170.88 622.521 169.416 622.521 167.64ZM620.721 167.64C620.721 169.008 620.169 170.112 619.257 170.616C618.513 171.048 617.481 171.216 615.849 171.216H612.561V163.872H615.081C617.121 163.872 618.393 164.04 619.113 164.4C620.145 164.928 620.721 166.056 620.721 167.64ZM642.676 180V162.264H639.916L634.204 177.36L628.468 162.264H625.708V180H627.484V164.208L633.412 180H634.948L640.9 164.208V180H642.676ZM662.715 180L655.083 162.264H653.091L645.483 180H647.355L649.947 174.024H658.203L660.771 180H662.715ZM657.507 172.416H650.619L654.099 164.28L657.507 172.416ZM679.016 183.36V178.392H677.552V162.264H675.776V178.392H666.584V162.264H664.808V180H677.24V183.36H679.016ZM694.158 180V162.264H692.238L683.67 178.008V162.264H681.894V180H684.462L692.382 165.144V180H694.158ZM720.872 171.144C720.872 166.08 716.648 161.952 711.512 161.952C706.76 161.952 702.752 165.576 702.224 170.064H699.584V162.264H697.808V180H699.584V171.672H702.224C702.56 176.52 706.52 180.312 711.512 180.312C716.648 180.312 720.872 176.16 720.872 171.144ZM719.072 171.168C719.072 175.272 715.64 178.68 711.512 178.68C707.336 178.68 703.928 175.272 703.928 171.072C703.928 167.016 707.408 163.584 711.512 163.584C715.64 163.584 719.072 167.016 719.072 171.168ZM748.386 171.144C748.386 166.08 744.162 161.952 739.026 161.952C733.938 161.952 729.642 166.104 729.642 171.024C729.642 176.184 733.818 180.312 739.026 180.312C744.162 180.312 748.386 176.16 748.386 171.144ZM746.586 171.168C746.586 175.272 743.154 178.68 739.026 178.68C734.85 178.68 731.442 175.272 731.442 171.072C731.442 167.016 734.922 163.584 739.026 163.584C743.154 163.584 746.586 167.016 746.586 171.168ZM554.48 210.344H552.512C551.768 211.28 551.336 211.76 550.736 212.216C549.56 213.152 547.952 213.68 546.344 213.68C542.24 213.68 538.856 210.272 538.856 206.12C538.856 201.848 542.096 198.584 546.32 198.584C547.856 198.584 549.296 198.992 550.472 199.784C551.264 200.288 551.744 200.816 552.416 201.872H554.408C553.04 198.824 549.92 196.952 546.248 196.952C540.968 196.952 537.056 200.888 537.056 206.192C537.056 211.376 541.064 215.312 546.368 215.312C549.968 215.312 552.704 213.632 554.48 210.344ZM567.043 215V213.392H559.123V206.84H566.779V205.232H559.123V198.872H567.043V197.264H557.347V215H567.043ZM582.239 209.336C582.239 205.28 579.743 203.624 574.607 203.624H571.991V198.872H581.351V197.264H570.215V215H574.607C579.719 215 582.239 213.32 582.239 209.336ZM580.439 209.336C580.439 212.504 578.231 213.392 574.487 213.392H571.991V205.232H574.487C578.255 205.232 580.439 206.12 580.439 209.336ZM593.622 215V213.392H585.702V206.84H593.358V205.232H585.702V198.872H593.622V197.264H583.926V215H593.622Z" fill="white"/>
<path d="M1261.57 156V138.264H1259.79V146.064H1250.6V138.264H1248.82V156H1250.6V147.672H1259.79V156H1261.57ZM1280.88 156L1273.25 138.264H1271.25L1263.65 156H1265.52L1268.11 150.024H1276.37L1278.93 156H1280.88ZM1275.67 148.416H1268.78L1272.26 140.28L1275.67 148.416ZM1294.56 156V138.264H1292.79V147.456H1288.64C1286.12 147.456 1284.51 147.312 1284.51 143.904V138.264H1282.73V143.76C1282.73 147.504 1284.1 149.064 1288.59 149.064H1292.79V156H1294.56ZM1310.95 156V138.264H1309.17V146.064H1299.98V138.264H1298.21V156H1299.98V147.672H1309.17V156H1310.95ZM1326.85 156V138.264H1324.93L1316.37 154.008V138.264H1314.59V156H1317.16L1325.08 141.144V156H1326.85ZM1355.14 147.144C1355.14 142.08 1350.91 137.952 1345.78 137.952C1340.69 137.952 1336.39 142.104 1336.39 147.024C1336.39 152.184 1340.57 156.312 1345.78 156.312C1350.91 156.312 1355.14 152.16 1355.14 147.144ZM1353.34 147.168C1353.34 151.272 1349.9 154.68 1345.78 154.68C1341.6 154.68 1338.19 151.272 1338.19 147.072C1338.19 143.016 1341.67 139.584 1345.78 139.584C1349.9 139.584 1353.34 143.016 1353.34 147.168ZM1370.04 150.336C1370.04 146.28 1367.55 144.624 1362.41 144.624H1359.8V139.872H1369.16V138.264H1358.02V156H1362.41C1367.52 156 1370.04 154.32 1370.04 150.336ZM1368.24 150.336C1368.24 153.504 1366.04 154.392 1362.29 154.392H1359.8V146.232H1362.29C1366.06 146.232 1368.24 147.12 1368.24 150.336ZM1392.68 159.36V154.392H1391.22V138.264H1389.44V154.392H1382.36V138.264H1380.59V154.392H1373.51V138.264H1371.73V156H1390.91V159.36H1392.68ZM1411 156L1403.37 138.264H1401.38L1393.77 156H1395.64L1398.24 150.024H1406.49L1409.06 156H1411ZM1405.8 148.416H1398.91L1402.39 140.28L1405.8 148.416ZM1423.73 139.872V138.264H1411.44V139.872H1416.7V156H1418.47V139.872H1423.73ZM1436.3 150.336C1436.3 146.28 1433.81 144.624 1428.67 144.624H1426.05V138.264H1424.28V156H1428.67C1433.78 156 1436.3 154.32 1436.3 150.336ZM1434.5 150.336C1434.5 153.504 1432.29 154.392 1428.55 154.392H1426.05V146.232H1428.55C1432.32 146.232 1434.5 147.12 1434.5 150.336ZM1454.64 151.344H1452.68C1451.93 152.28 1451.5 152.76 1450.9 153.216C1449.72 154.152 1448.12 154.68 1446.51 154.68C1442.4 154.68 1439.02 151.272 1439.02 147.12C1439.02 142.848 1442.26 139.584 1446.48 139.584C1448.02 139.584 1449.46 139.992 1450.64 140.784C1451.43 141.288 1451.91 141.816 1452.58 142.872H1454.57C1453.2 139.824 1450.08 137.952 1446.41 137.952C1441.13 137.952 1437.22 141.888 1437.22 147.192C1437.22 152.376 1441.23 156.312 1446.53 156.312C1450.13 156.312 1452.87 154.632 1454.64 151.344ZM1468.36 156V138.264H1463.97C1461.64 138.264 1460.1 138.528 1459 139.128C1457.27 140.064 1456.34 141.744 1456.34 143.976C1456.34 147.12 1458.4 149.304 1462.36 149.304L1456.6 156H1458.81L1465.74 147.816C1463.78 147.816 1461.66 147.864 1460.82 147.648C1459.05 147.168 1458.14 145.92 1458.14 143.904C1458.14 142.296 1458.81 141.096 1460.01 140.52C1460.97 140.064 1462.22 139.872 1464.09 139.872H1466.58V156H1468.36ZM1261.09 191V173.264H1259.17L1250.6 189.008V173.264H1248.82V191H1251.39L1259.31 176.144V191H1261.09ZM1283.42 185.336C1283.42 181.28 1280.92 179.624 1275.79 179.624H1273.17V174.872H1282.53V173.264H1271.39V191H1275.79C1280.9 191 1283.42 189.32 1283.42 185.336ZM1281.62 185.336C1281.62 188.504 1279.41 189.392 1275.67 189.392H1273.17V181.232H1275.67C1279.43 181.232 1281.62 182.12 1281.62 185.336ZM1297.49 173.264H1295.55L1290.39 183.2L1285.35 173.264H1283.38L1289.35 185.072L1286.23 191H1288.18L1291.3 185.072L1297.49 173.264ZM1311.81 189.392H1301.8L1306.79 175.472L1311.81 189.392ZM1315.36 194.024V189.392H1313.68L1307.66 173.264H1305.93L1299.88 189.392H1298.2V194.024H1299.98V191H1313.59V194.024H1315.36ZM1331.77 185.336C1331.77 181.28 1329.27 179.624 1324.14 179.624H1321.52V173.264H1319.75V191H1324.14C1329.25 191 1331.77 189.32 1331.77 185.336ZM1329.97 185.336C1329.97 188.504 1327.76 189.392 1324.02 189.392H1321.52V181.232H1324.02C1327.79 181.232 1329.97 182.12 1329.97 185.336ZM1356.77 186.344H1354.8C1354.06 187.28 1353.63 187.76 1353.03 188.216C1351.85 189.152 1350.24 189.68 1348.63 189.68C1344.53 189.68 1341.15 186.272 1341.15 182.12C1341.15 177.848 1344.39 174.584 1348.61 174.584C1350.15 174.584 1351.59 174.992 1352.76 175.784C1353.55 176.288 1354.03 176.816 1354.71 177.872H1356.7C1355.33 174.824 1352.21 172.952 1348.54 172.952C1343.26 172.952 1339.35 176.888 1339.35 182.192C1339.35 187.376 1343.35 191.312 1348.66 191.312C1352.26 191.312 1354.99 189.632 1356.77 186.344ZM1371.23 191V173.264H1369.45V182.456H1365.3C1362.78 182.456 1361.17 182.312 1361.17 178.904V173.264H1359.4V178.76C1359.4 182.504 1360.76 184.064 1365.25 184.064H1369.45V191H1371.23ZM1390.54 191L1382.91 173.264H1380.92L1373.31 191H1375.18L1377.77 185.024H1386.03L1388.6 191H1390.54ZM1385.33 183.416H1378.45L1381.93 175.28L1385.33 183.416ZM1409.29 186.344H1407.32C1406.58 187.28 1406.15 187.76 1405.55 188.216C1404.37 189.152 1402.76 189.68 1401.16 189.68C1397.05 189.68 1393.67 186.272 1393.67 182.12C1393.67 177.848 1396.91 174.584 1401.13 174.584C1402.67 174.584 1404.11 174.992 1405.28 175.784C1406.08 176.288 1406.56 176.816 1407.23 177.872H1409.22C1407.85 174.824 1404.73 172.952 1401.06 172.952C1395.78 172.952 1391.87 176.888 1391.87 182.192C1391.87 187.376 1395.88 191.312 1401.18 191.312C1404.78 191.312 1407.52 189.632 1409.29 186.344ZM1422.79 174.872V173.264H1410.5V174.872H1415.76V191H1417.54V174.872H1422.79ZM1437.48 191L1430.78 173.264H1429.05L1422.36 191H1424.3L1429.94 175.472L1435.6 191H1437.48ZM1452.46 191V173.264H1450.54L1441.97 189.008V173.264H1440.19V191H1442.76L1450.68 176.144V191H1452.46ZM1468.06 185.912C1468.06 183.752 1467.1 182.216 1465.01 181.544C1466.43 180.92 1467.05 179.624 1467.05 177.872C1467.05 176.336 1466.47 175.04 1465.47 174.296C1464.46 173.576 1463.14 173.264 1460.98 173.264H1456.11V191H1461.15C1465.78 191 1468.06 189.584 1468.06 185.912ZM1466.26 186.008C1466.26 188.744 1464.07 189.392 1461.03 189.392H1457.88V182.504H1460.71C1464.39 182.504 1466.26 183.2 1466.26 186.008ZM1465.25 177.896C1465.25 180.416 1463.47 180.944 1460.76 180.944H1457.88V174.872H1460.47C1463.47 174.872 1465.25 175.304 1465.25 177.896Z" fill="white"/>
<path d="M906.568 162V144.264H893.824V162H895.6V145.872H904.792V162H906.568ZM921.943 149.64C921.943 147.6 921.175 145.992 919.831 145.2C918.727 144.528 917.383 144.264 915.103 144.264H910.207V162H911.983V154.824H915.391C917.791 154.824 919.087 154.512 920.167 153.72C921.319 152.88 921.943 151.416 921.943 149.64ZM920.143 149.64C920.143 151.008 919.591 152.112 918.679 152.616C917.935 153.048 916.903 153.216 915.271 153.216H911.983V145.872H914.503C916.543 145.872 917.815 146.04 918.535 146.4C919.567 146.928 920.143 148.056 920.143 149.64ZM942.386 153.144C942.386 148.08 938.162 143.952 933.026 143.952C927.938 143.952 923.642 148.104 923.642 153.024C923.642 158.184 927.818 162.312 933.026 162.312C938.162 162.312 942.386 158.16 942.386 153.144ZM940.586 153.168C940.586 157.272 937.154 160.68 933.026 160.68C928.85 160.68 925.442 157.272 925.442 153.072C925.442 149.016 928.922 145.584 933.026 145.584C937.154 145.584 940.586 149.016 940.586 153.168ZM960.941 162L953.309 144.264H951.317L943.709 162H945.581L948.173 156.024H956.429L958.997 162H960.941ZM955.733 154.416H948.845L952.325 146.28L955.733 154.416ZM975.779 162V144.264H974.003V152.064H964.811V144.264H963.035V162H964.811V153.672H974.003V162H975.779ZM995.09 162L987.458 144.264H985.466L977.858 162H979.73L982.322 156.024H990.578L993.146 162H995.09ZM989.882 154.416H982.994L986.474 146.28L989.882 154.416ZM1011.32 162L1004.62 144.264H1002.9L996.199 162H998.143L1003.78 146.472L1009.45 162H1011.32ZM1026.3 162V144.264H1024.38L1015.81 160.008V144.264H1014.03V162H1016.6L1024.52 147.144V162H1026.3ZM1043.68 156.96C1043.68 154.752 1042.19 153.096 1040.92 152.712C1042.26 151.944 1043.25 150.624 1043.25 148.8C1043.25 145.776 1040.08 143.952 1037.01 143.952C1031.15 143.952 1029.97 148.824 1029.97 148.824H1031.77C1031.77 148.824 1032.83 145.584 1036.91 145.584C1039.07 145.584 1041.4 146.688 1041.4 148.824C1041.4 150.576 1040.08 151.824 1038.13 151.824H1035.11V153.432H1038.09C1040.1 153.432 1041.88 154.848 1041.88 157.056C1041.88 159.696 1039.65 160.68 1036.77 160.68C1033.65 160.68 1031.58 158.304 1031.08 157.344H1029.18C1029.42 158.16 1031.53 162.312 1036.62 162.312C1041.09 162.312 1043.68 160.56 1043.68 156.96ZM1058.17 162V144.264H1056.25L1047.69 160.008V144.264H1045.91V162H1048.48L1056.4 147.144V162H1058.17ZM1073.56 149.64C1073.56 147.6 1072.79 145.992 1071.45 145.2C1070.34 144.528 1069 144.264 1066.72 144.264H1061.82V162H1063.6V154.824H1067.01C1069.41 154.824 1070.7 154.512 1071.78 153.72C1072.94 152.88 1073.56 151.416 1073.56 149.64ZM1071.76 149.64C1071.76 151.008 1071.21 152.112 1070.3 152.616C1069.55 153.048 1068.52 153.216 1066.89 153.216H1063.6V145.872H1066.12C1068.16 145.872 1069.43 146.04 1070.15 146.4C1071.18 146.928 1071.76 148.056 1071.76 149.64ZM1088.41 144.264H1086.47L1081.31 154.2L1076.27 144.264H1074.3L1080.28 156.072L1077.16 162H1079.1L1082.22 156.072L1088.41 144.264ZM1100.12 139.944H1098.58C1098.48 140.544 1098.32 140.808 1097.96 141.048C1097.52 141.288 1097 141.432 1096.47 141.432C1095.94 141.432 1095.41 141.288 1094.98 141.048C1094.62 140.808 1094.45 140.544 1094.36 139.944H1092.82C1093.18 141.912 1094.33 142.824 1096.47 142.824C1097.48 142.824 1098.32 142.584 1098.94 142.128C1099.61 141.648 1099.9 141.12 1100.12 139.944ZM1102.59 162V144.264H1100.67L1092.1 160.008V144.264H1090.32V162H1092.89L1100.81 147.144V162H1102.59ZM917.136 192.344H915.168C914.424 193.28 913.992 193.76 913.392 194.216C912.216 195.152 910.608 195.68 909 195.68C904.896 195.68 901.512 192.272 901.512 188.12C901.512 183.848 904.752 180.584 908.976 180.584C910.512 180.584 911.952 180.992 913.128 181.784C913.92 182.288 914.4 182.816 915.072 183.872H917.064C915.696 180.824 912.576 178.952 908.904 178.952C903.624 178.952 899.712 182.888 899.712 188.192C899.712 193.376 903.72 197.312 909.024 197.312C912.624 197.312 915.36 195.632 917.136 192.344ZM932.748 197V179.264H920.004V197H921.78V180.872H930.972V197H932.748ZM948.651 197V179.264H946.731L938.163 195.008V179.264H936.387V197H938.955L946.875 182.144V197H948.651ZM968.957 192.344H966.989C966.245 193.28 965.813 193.76 965.213 194.216C964.037 195.152 962.429 195.68 960.821 195.68C956.717 195.68 953.333 192.272 953.333 188.12C953.333 183.848 956.573 180.584 960.797 180.584C962.333 180.584 963.773 180.992 964.949 181.784C965.741 182.288 966.221 182.816 966.893 183.872H968.885C967.517 180.824 964.397 178.952 960.725 178.952C955.445 178.952 951.533 182.888 951.533 188.192C951.533 193.376 955.541 197.312 960.845 197.312C964.445 197.312 967.181 195.632 968.957 192.344ZM989.8 188.144C989.8 183.08 985.576 178.952 980.44 178.952C975.352 178.952 971.056 183.104 971.056 188.024C971.056 193.184 975.232 197.312 980.44 197.312C985.576 197.312 989.8 193.16 989.8 188.144ZM988 188.168C988 192.272 984.568 195.68 980.44 195.68C976.264 195.68 972.856 192.272 972.856 188.072C972.856 184.016 976.336 180.584 980.44 180.584C984.568 180.584 988 184.016 988 188.168ZM994.459 197V179.264H992.683V197H994.459ZM1004.54 197L997.051 187.904L1004.3 179.264H1002.07L994.819 187.904L1002.31 197H1004.54ZM1027.66 197L1020.96 179.264H1019.23L1012.54 197H1014.48L1020.12 181.472L1025.78 197H1027.66ZM1053.43 188.144C1053.43 183.08 1049.21 178.952 1044.07 178.952C1039.32 178.952 1035.31 182.576 1034.79 187.064H1032.15V179.264H1030.37V197H1032.15V188.672H1034.79C1035.12 193.52 1039.08 197.312 1044.07 197.312C1049.21 197.312 1053.43 193.16 1053.43 188.144ZM1051.63 188.168C1051.63 192.272 1048.2 195.68 1044.07 195.68C1039.9 195.68 1036.49 192.272 1036.49 188.072C1036.49 184.016 1039.97 180.584 1044.07 180.584C1048.2 180.584 1051.63 184.016 1051.63 188.168ZM1068.72 195.392H1058.72L1063.71 181.472L1068.72 195.392ZM1072.28 200.024V195.392H1070.6L1064.57 179.264H1062.84L1056.8 195.392H1055.12V200.024H1056.89V197H1070.5V200.024H1072.28ZM1086.36 197V195.392H1078.44V188.84H1086.09V187.232H1078.44V180.872H1086.36V179.264H1076.66V197H1086.36ZM1099.32 174.944H1097.78C1097.69 175.544 1097.52 175.808 1097.16 176.048C1096.73 176.288 1096.2 176.432 1095.67 176.432C1095.14 176.432 1094.62 176.288 1094.18 176.048C1093.82 175.808 1093.66 175.544 1093.56 174.944H1092.02C1092.38 176.912 1093.54 177.824 1095.67 177.824C1096.68 177.824 1097.52 177.584 1098.14 177.128C1098.82 176.648 1099.1 176.12 1099.32 174.944ZM1101.79 197V179.264H1099.87L1091.3 195.008V179.264H1089.53V197H1092.1L1100.02 182.144V197H1101.79Z" fill="white"/>
<path d="M824.5 194.611C818.963 201.593 811.861 205.083 803.194 205.083C794.528 205.083 787.306 201.593 781.528 194.611C775.75 187.63 772.861 178.542 772.861 167.347C772.861 156.153 775.75 147.065 781.528 140.083C787.306 132.981 794.407 129.431 802.833 129.431C811.741 129.431 819.023 132.981 824.681 140.083C830.338 147.065 833.167 156.153 833.167 167.347C833.167 178.542 830.278 187.63 824.5 194.611ZM802.833 200.931C812.102 200.931 817.338 192.745 818.542 176.375C818.782 173.486 818.903 169.995 818.903 165.903C818.903 155.912 817.88 148.269 815.833 142.972C813.306 136.593 808.972 133.403 802.833 133.403C794.167 133.403 789.111 140.144 787.667 153.625C787.306 157.838 787.125 162.773 787.125 168.431C787.125 174.088 787.546 179.505 788.389 184.681C790.315 195.514 795.13 200.931 802.833 200.931ZM861.734 190.278C861.734 193.889 860.109 196.236 856.859 197.319C859.146 199.125 861.433 200.208 863.72 200.569C866.007 200.81 868.354 200.931 870.762 200.931C875.577 200.931 879.248 199.486 881.776 196.597C884.424 193.588 885.748 189.676 885.748 184.861C885.748 180.046 884.002 176.074 880.512 172.944C877.141 169.815 872.928 168.25 867.873 168.25C866.067 168.25 864.262 168.431 862.456 168.792V164.458C868.595 164.458 873.35 162.833 876.72 159.583C880.09 156.213 881.776 152 881.776 146.944C881.776 137.917 877.563 133.403 869.137 133.403C863.961 133.403 860.109 134.667 857.581 137.194C859.146 137.556 860.41 138.398 861.373 139.722C862.336 140.926 862.817 142.431 862.817 144.236C862.817 145.921 862.155 147.426 860.831 148.75C859.507 150.074 857.762 150.736 855.595 150.736C853.428 150.736 851.743 150.014 850.539 148.569C849.456 147.005 848.914 145.44 848.914 143.875C848.914 140.986 850.178 138.519 852.706 136.472C854.873 134.306 857.641 132.62 861.012 131.417C864.502 130.093 868.114 129.431 871.845 129.431C879.308 129.431 885.026 130.995 888.998 134.125C892.97 137.134 894.956 140.986 894.956 145.681C894.956 150.375 893.391 154.468 890.262 157.958C887.252 161.329 883.16 163.556 877.984 164.639C884.364 165 889.479 166.806 893.331 170.056C897.183 173.185 899.109 177.278 899.109 182.333C899.109 189.315 896.34 194.852 890.803 198.944C885.266 203.037 878.104 205.083 869.317 205.083C863.539 205.083 858.484 203.759 854.151 201.111C849.817 198.463 847.651 194.972 847.651 190.639C847.651 188.713 848.313 187.088 849.637 185.764C851.081 184.319 852.766 183.597 854.692 183.597C856.739 183.597 858.424 184.319 859.748 185.764C861.072 187.088 861.734 188.593 861.734 190.278Z" fill="white" fill-opacity="0.15"/>
</svg>
